<svg xmlns="http://www.w3.org/2000/svg" width="32" height="32" viewBox="0 0 32 32" id="cart">
    <g transform="translate(-252 -244)">
        <path fill="black" fill-rule="evenodd" d="M261 268.00586c-1.64501 0-3 1.35499-3 3 0 1.64501 1.35499 3 3 3 1.64501 0 3-1.35499 3-3 0-1.64501-1.35499-3-3-3zm0 2c.56413 0 1 .43587 1 1 0 .56413-.43587 1-1 1-.56413 0-1-.43587-1-1 0-.56413.43587-1 1-1zM275 268.00586c-1.64501 0-3 1.35499-3 3 0 1.64501 1.35499 3 3 3 1.64501 0 3-1.35499 3-3 0-1.64501-1.35499-3-3-3zm0 2c.56413 0 1 .43587 1 1 0 .56413-.43587 1-1 1-.56413 0-1-.43587-1-1 0-.56413.43587-1 1-1zM255 246.00586a1 1 0 00-1 1 1 1 0 001 1h1.17969l2.65039 13.24219C257.7593 261.70823 257 262.77542 257 264.00586c0 1.6447 1.3553 3 3 3h17a1 1 0 001-1 1 1 0 00-1-1h-17c-.5713 0-1-.4287-1-1 0-.5713.4287-1 1-1h15A1 1 0 00275.0293 263H278a1.0001 1.0001 0 00.98828-.84375l.93945-5.96875a1 1 0 00-.83203-1.14453 1 1 0 00-1.14453.83398L277.14453 261h-16.32422l-1.80078-8.99414h12.08399a1 1 0 001-1 1 1 0 00-1-1h-12.48438l-.63867-3.19531A1.0001 1.0001 0 00257 246.00586z" style="-inkscape-stroke:none"/>
        <path fill="black" fill-rule="evenodd" d="m 276,246.00586 c -3.30186,0 -6,2.69814 -6,6 0,3.30186 2.69814,6 6,6 3.30186,0 6,-2.69814 6,-6 0,-3.30186 -2.69814,-6 -6,-6 z m 0,2 c 2.22098,0 4,1.77902 4,4 0,2.22098 -1.77902,4 -4,4 -2.22098,0 -4,-1.77902 -4,-4 0,-2.22098 1.77902,-4 4,-4 z" style="-inkscape-stroke:none"/>
        <path fill="black" fill-rule="evenodd" d="m 276,249.00586 a 1,1 0 0 0 -1,1 v 1 h -1 a 1,1 0 0 0 -1,1 1,1 0 0 0 1,1 h 1 v 1 a 1,1 0 0 0 1,1 1,1 0 0 0 1,-1 v -1 h 1 a 1,1 0 0 0 1,-1 1,1 0 0 0 -1,-1 h -1 v -1 a 1,1 0 0 0 -1,-1 z" style="-inkscape-stroke:none"/>
    </g>
</svg>
